<!-- icon666.com - MILLIONS vector ICONS FREE --><svg id="Solid" viewBox="0 0 64 64" xmlns="http://www.w3.org/2000/svg"><path d="m54 3h-44a7.0077 7.0077 0 0 0 -7 7v44a7.0077 7.0077 0 0 0 7 7h44a7.0077 7.0077 0 0 0 7-7v-44a7.0077 7.0077 0 0 0 -7-7zm-28 2a1 1 0 1 1 -1 1 1.0029 1.0029 0 0 1 1-1zm-19 5v8a1 1 0 0 1 -2 0v-8a5.0018 5.0018 0 0 1 5-5h12a1 1 0 0 1 0 2h-12a3.0088 3.0088 0 0 0 -3 3zm39.5 17.5-14.67 14.67a4.0076 4.0076 0 0 1 -5.66 0l-7.67-7.67a3.5355 3.5355 0 0 1 5-5l5.5 5.5 12.5-12.5a3.5355 3.5355 0 0 1 5 5z"></path></svg>