<!-- icon666.com - MILLIONS vector ICONS FREE --><svg version="1.1" id="Capa_1" xmlns="http://www.w3.org/2000/svg" xmlns:xlink="http://www.w3.org/1999/xlink" x="0px" y="0px" viewBox="0 0 512 512" style="enable-background:new 0 0 512 512;" xml:space="preserve"><g><g><rect x="174.431" y="230.994" transform="matrix(0.7071 -0.7071 0.7071 0.7071 -122.6031 215.9982)" width="50.001" height="50.001"></rect></g></g><g><g><rect x="230.996" y="174.415" transform="matrix(0.7071 -0.7071 0.7071 0.7071 -66.0284 239.4244)" width="50.001" height="50.001"></rect></g></g><g><g><rect x="174.426" y="344.127" transform="matrix(0.7071 -0.7071 0.7071 0.7071 -202.6017 249.1305)" width="50.001" height="50.001"></rect></g></g><g><g><rect x="231.004" y="287.557" transform="matrix(0.7071 -0.7071 0.7071 0.7071 -146.0294 272.568)" width="50.001" height="50.001"></rect></g></g><g><g><rect x="231" y="400.715" transform="matrix(0.7071 -0.7071 0.7071 0.7071 -226.045 305.709)" width="50.001" height="50.001"></rect></g></g><g><g><rect x="287.576" y="230.994" transform="matrix(0.7071 -0.7071 0.7071 0.7071 -89.464 296.0047)" width="50.001" height="50.001"></rect></g></g><g><g><rect x="287.571" y="344.143" transform="matrix(0.7071 -0.7071 0.7071 0.7071 -169.4739 329.1407)" width="50.001" height="50.001"></rect></g></g><g><g><path d="M84.287,111.99L127.531,512h256.939l43.244-400.01H84.287z M369.139,234.78l16.956-16.956l-7.448,68.893l-9.509-9.509 l-35.356,35.356l37.967,37.967l-4.51,41.717l-33.456,33.456l26.928,26.928l-3.175,29.368h-9.884l-35.083-35.083l-35.083,35.083 H234.51l-35.083-35.083l-35.083,35.083h-9.884l-3.175-29.368l26.928-26.928l-33.456-33.456l-4.51-41.717l37.967-37.967 l-35.354-35.356l-9.509,9.509l-7.448-68.893l16.956,16.956l35.356-35.356l-35.357-35.357l-20.547,20.547l-4.139-38.288 l4.336-4.335h40.701l36.22,36.22l36.22-36.22h40.7l36.22,36.22l36.22-36.22h40.701l4.336,4.335l-4.139,38.288l-20.547-20.547 l-35.357,35.357L369.139,234.78z"></path></g></g><g><g><path d="M387.643,52.324c-8.371-7.145-19.404-10.24-30.274-8.504l-14.391,2.307c-0.96,0.154-1.929,0.121-2.877-0.1l-16.825-3.906 c-7.037-1.634-14.417-1.403-21.337,0.662l-8.924,2.665c-4.595,1.373-9.49-0.17-12.468-3.93 c-5.832-7.362-14.083-12.587-23.232-14.711l-24.564-5.703c-6.811-1.583-13.762-1.805-20.65-0.659l-0.807,0.133 c-6.061,1.007-12.376-0.498-17.333-4.12c-5.797-4.237-12.286-7.21-19.288-8.837L141.847,0l-6.895,29.071 c-2.144,9.039-0.892,18.519,3.525,26.694L142.388,63c1.385,2.563,0.94,4.94,0.552,6.129c-0.388,1.188-1.432,3.369-4.063,4.62 c-4.322,2.055-8.131,4.864-11.31,8.239h273.21C401.14,70.738,396.433,59.828,387.643,52.324z"></path></g></g></svg>